<svg xmlns="http://www.w3.org/2000/svg" xmlns:xlink="http://www.w3.org/1999/xlink" width="500" zoomAndPan="magnify" viewBox="0 0 375 374.999991" height="500" preserveAspectRatio="xMidYMid meet" version="1.0"><defs><clipPath id="0301f99ee1"><path d="M 27 20.148438 L 362.640625 20.148438 L 362.640625 356 L 27 356 Z M 27 20.148438 " clip-rule="nonzero"/></clipPath><clipPath id="c51e8b04cd"><path d="M 362.574219 188.253906 C 362.574219 280.878906 287.488281 355.96875 194.863281 355.96875 C 102.238281 355.96875 27.148438 280.878906 27.148438 188.253906 C 27.148438 95.628906 102.238281 20.515625 194.863281 20.515625 C 287.488281 20.515625 362.574219 95.605469 362.574219 188.253906 " clip-rule="nonzero"/></clipPath><clipPath id="f29350286c"><path d="M 12 12 L 348 12 L 348 348 L 12 348 Z M 12 12 " clip-rule="nonzero"/></clipPath><clipPath id="7576ebfc7e"><path d="M 347.871094 180.15625 C 347.871094 272.78125 272.78125 347.871094 180.15625 347.871094 C 87.53125 347.871094 12.417969 272.78125 12.417969 180.15625 C 12.417969 87.53125 87.507812 12.417969 180.132812 12.417969 C 272.757812 12.417969 347.847656 87.507812 347.847656 180.15625 " clip-rule="nonzero"/></clipPath><clipPath id="6df5ecab59"><path d="M 208 134 L 311 134 L 311 227.367188 L 208 227.367188 Z M 208 134 " clip-rule="nonzero"/></clipPath><clipPath id="0b657811c0"><path d="M 236.914062 136.09375 C 236.914062 136.09375 219.898438 140.214844 212.199219 161.902344 C 204.5 183.585938 209.34375 195.929688 218.65625 207.40625 C 227.972656 218.882812 241.882812 226.210938 255.097656 227.101562 C 268.3125 227.996094 284.058594 217.070312 289.078125 215.453125 C 294.09375 213.839844 307.878906 210.261719 310.039062 200.574219 C 312.203125 190.886719 309.867188 185.175781 305.371094 182.667969 C 300.875 180.15625 282.445312 175.859375 270.796875 154.003906 C 259.144531 132.144531 247.148438 133.210938 236.941406 136.09375 " clip-rule="nonzero"/></clipPath><clipPath id="cae68017f4"><path d="M 133 50 L 264 50 L 264 182.757812 L 133 182.757812 Z M 133 50 " clip-rule="nonzero"/></clipPath><clipPath id="98ab46cae7"><path d="M 255.046875 182.691406 C 230.207031 163.589844 231.699219 114.183594 225.910156 97.171875 C 220.371094 80.925781 206.3125 63.238281 180.035156 67.8125 C 153.753906 72.382812 133.707031 112.445312 133.707031 112.445312 L 133.707031 73.273438 C 133.707031 73.273438 149.480469 46.996094 184.355469 50.347656 C 219.230469 53.703125 236.617188 72.953125 240.738281 123.449219 C 244.8125 173.425781 263.667969 179.535156 263.667969 179.535156 L 259.445312 181.101562 Z M 255.046875 182.691406 " clip-rule="nonzero"/></clipPath><clipPath id="7b9cf17e54"><path d="M 255 179 L 264 179 L 264 184 L 255 184 Z M 255 179 " clip-rule="nonzero"/></clipPath><clipPath id="9a8018fe34"><path d="M 255.046875 182.691406 C 255.046875 182.691406 260.585938 185.648438 263.640625 179.511719 L 260.140625 179.3125 Z M 255.046875 182.691406 " clip-rule="nonzero"/></clipPath><clipPath id="ff09381b35"><path d="M 57.5625 67.636719 L 165 67.636719 L 165 310.832031 L 57.5625 310.832031 Z M 57.5625 67.636719 " clip-rule="nonzero"/></clipPath><clipPath id="080f488548"><path d="M 139.445312 115.800781 C 139.445312 115.800781 130.355469 171.214844 131.324219 183.636719 C 132.292969 196.054688 134.179688 234.28125 157.132812 262.945312 C 180.082031 291.609375 146.277344 324.074219 114.605469 304.03125 C 84.128906 284.753906 53.453125 258.648438 58.222656 186.019531 C 62.992188 113.390625 99.429688 82.839844 111.082031 75.660156 C 122.730469 68.480469 140.367188 64.132812 141.359375 71.835938 C 142.328125 79.410156 136.789062 78.566406 135.25 83.929688 C 133.808594 89 133.238281 95.234375 139.445312 115.800781 " clip-rule="nonzero"/></clipPath></defs><g clip-path="url(#0301f99ee1)"><g clip-path="url(#c51e8b04cd)"><path fill="#ad680c" d="M 0 0 L 375.589844 0 L 375.589844 368.394531 L 0 368.394531 Z M 0 0 " fill-opacity="1" fill-rule="nonzero"/></g></g><g clip-path="url(#f29350286c)"><g clip-path="url(#7576ebfc7e)"><path fill="#f2f2f2" d="M 0 0 L 375.589844 0 L 375.589844 368.394531 L 0 368.394531 Z M 0 0 " fill-opacity="1" fill-rule="nonzero"/></g></g><g clip-path="url(#6df5ecab59)"><g clip-path="url(#0b657811c0)"><path fill="#f2a73b" d="M 0 0 L 375.589844 0 L 375.589844 368.394531 L 0 368.394531 Z M 0 0 " fill-opacity="1" fill-rule="nonzero"/></g></g><g clip-path="url(#cae68017f4)"><g clip-path="url(#98ab46cae7)"><path fill="#ad680c" d="M 0 0 L 375.589844 0 L 375.589844 368.394531 L 0 368.394531 Z M 0 0 " fill-opacity="1" fill-rule="nonzero"/></g></g><g clip-path="url(#7b9cf17e54)"><g clip-path="url(#9a8018fe34)"><path fill="#2e5075" d="M 0 0 L 375.589844 0 L 375.589844 368.394531 L 0 368.394531 Z M 0 0 " fill-opacity="1" fill-rule="nonzero"/></g></g><g clip-path="url(#ff09381b35)"><g clip-path="url(#080f488548)"><path fill="#f2a73b" d="M 0 0 L 375.589844 0 L 375.589844 368.394531 L 0 368.394531 Z M 0 0 " fill-opacity="1" fill-rule="nonzero"/></g></g></svg>