<svg xmlns="http://www.w3.org/2000/svg" xmlns:xlink="http://www.w3.org/1999/xlink" width="500" zoomAndPan="magnify" viewBox="0 0 375 374.999991" height="500" preserveAspectRatio="xMidYMid meet" version="1.0"><defs><clipPath id="a8fe40e4bf"><path d="M 28.644531 20.050781 L 363 20.050781 L 363 355 L 28.644531 355 Z M 28.644531 20.050781 " clip-rule="nonzero"/></clipPath><clipPath id="23b9a8199b"><path d="M 362.574219 187.359375 C 362.574219 279.511719 287.859375 354.226562 195.707031 354.226562 C 103.554688 354.226562 28.839844 279.535156 28.839844 187.359375 C 28.839844 95.183594 103.554688 20.492188 195.707031 20.492188 C 287.859375 20.492188 362.574219 95.207031 362.574219 187.382812 " clip-rule="nonzero"/></clipPath><clipPath id="e586d89321"><path d="M 12 12 L 346.609375 12 L 346.609375 346.609375 L 12 346.609375 Z M 12 12 " clip-rule="nonzero"/></clipPath><clipPath id="27849541d5"><path d="M 346.179688 179.285156 C 346.179688 271.4375 271.464844 346.15625 179.3125 346.15625 C 87.160156 346.15625 12.417969 271.464844 12.417969 179.285156 C 12.417969 87.109375 87.136719 12.417969 179.285156 12.417969 C 271.4375 12.417969 346.15625 87.136719 346.15625 179.285156 " clip-rule="nonzero"/></clipPath><clipPath id="fc4a5be02c"><path d="M 99 67.316406 L 239 67.316406 L 239 171.871094 L 99 171.871094 Z M 99 67.316406 " clip-rule="nonzero"/></clipPath><clipPath id="53cf0fe778"><path d="M 99.207031 155.890625 C 99.207031 155.890625 103.054688 107.925781 141.878906 83.160156 C 180.703125 58.394531 245.804688 56.90625 238.402344 130.503906 C 231 204.101562 99.207031 155.890625 99.207031 155.890625 " clip-rule="nonzero"/></clipPath><clipPath id="b00eb30ed0"><path d="M 98 105 L 260.671875 105 L 260.671875 291 L 98 291 Z M 98 105 " clip-rule="nonzero"/></clipPath><clipPath id="c25a6a8d7d"><path d="M 159.640625 105.339844 C 159.640625 105.339844 210.410156 103.976562 236.117188 129.558594 C 261.527344 154.796875 273.824219 223.824219 236.539062 249.207031 C 198.511719 275.117188 159.566406 286.738281 145.554688 290.265625 C 133.683594 293.246094 105.988281 282.863281 103.402344 257.355469 C 100.820312 231.847656 108.941406 224.445312 103.402344 201.890625 C 97.863281 179.335938 83.0625 112.394531 159.613281 105.367188 " clip-rule="nonzero"/></clipPath></defs><g clip-path="url(#a8fe40e4bf)"><g clip-path="url(#23b9a8199b)"><path fill="#ad680c" d="M 0 0 L 375.253906 0 L 375.253906 366.660156 L 0 366.660156 Z M 0 0 " fill-opacity="1" fill-rule="nonzero"/></g></g><g clip-path="url(#e586d89321)"><g clip-path="url(#27849541d5)"><path fill="#f2f2f2" d="M 0 0 L 375.253906 0 L 375.253906 366.660156 L 0 366.660156 Z M 0 0 " fill-opacity="1" fill-rule="nonzero"/></g></g><g clip-path="url(#fc4a5be02c)"><g clip-path="url(#53cf0fe778)"><path fill="#ad680c" d="M 0 0 L 375.253906 0 L 375.253906 366.660156 L 0 366.660156 Z M 0 0 " fill-opacity="1" fill-rule="nonzero"/></g></g><g clip-path="url(#b00eb30ed0)"><g clip-path="url(#c25a6a8d7d)"><path fill="#f2a73b" d="M 0 0 L 375.253906 0 L 375.253906 366.660156 L 0 366.660156 Z M 0 0 " fill-opacity="1" fill-rule="nonzero"/></g></g></svg>