<svg xmlns="http://www.w3.org/2000/svg" xmlns:xlink="http://www.w3.org/1999/xlink" width="500" zoomAndPan="magnify" viewBox="0 0 375 374.999991" height="500" preserveAspectRatio="xMidYMid meet" version="1.0"><defs><clipPath id="fc9913282a"><path d="M 28.65625 20.058594 L 363 20.058594 L 363 355 L 28.65625 355 Z M 28.65625 20.058594 " clip-rule="nonzero"/></clipPath><clipPath id="75162c7671"><path d="M 362.574219 187.507812 C 362.574219 279.660156 287.859375 354.375 195.707031 354.375 C 103.554688 354.375 28.839844 279.660156 28.839844 187.507812 C 28.839844 95.355469 103.554688 20.617188 195.707031 20.617188 C 287.859375 20.617188 362.574219 95.332031 362.574219 187.484375 " clip-rule="nonzero"/></clipPath><clipPath id="fe665ab8eb"><path d="M 12 12 L 346.738281 12 L 346.738281 346.738281 L 12 346.738281 Z M 12 12 " clip-rule="nonzero"/></clipPath><clipPath id="707181a5b7"><path d="M 346.179688 179.285156 C 346.179688 271.4375 271.464844 346.15625 179.3125 346.15625 C 87.160156 346.15625 12.417969 271.464844 12.417969 179.285156 C 12.417969 87.109375 87.136719 12.417969 179.3125 12.417969 C 271.488281 12.417969 346.179688 87.136719 346.179688 179.285156 " clip-rule="nonzero"/></clipPath><clipPath id="f9911fa705"><path d="M 82 91.699219 L 293 91.699219 L 293 245 L 82 245 Z M 82 91.699219 " clip-rule="nonzero"/></clipPath><clipPath id="fee74bc675"><path d="M 290.613281 166.097656 C 281.199219 119.75 246.921875 104.84375 203.703125 99.652344 C 177.449219 96.5 104.84375 79.683594 87.507812 108.59375 C 73.523438 131.945312 90.339844 180.28125 93.292969 205.589844 L 95.976562 206.933594 C 103.328125 214.609375 115.773438 215.824219 125.660156 217.710938 C 155.042969 223.328125 185.398438 226.851562 215.277344 228.019531 L 216.621094 228.070312 C 216.074219 234.753906 212.792969 240.988281 206.832031 244.390625 C 217.066406 242.699219 228.914062 237.085938 234.15625 227.898438 C 270.621094 225.785156 299.878906 211.578125 290.640625 166.074219 Z M 290.613281 166.097656 " clip-rule="nonzero"/></clipPath><clipPath id="87dfe0ab8f"><path d="M 66 177.667969 L 189 177.667969 L 189 267 L 66 267 Z M 66 177.667969 " clip-rule="nonzero"/></clipPath><clipPath id="6601fb89aa"><path d="M 67.238281 221.089844 C 72.703125 194.117188 92.648438 185.445312 117.8125 182.417969 C 133.085938 180.578125 175.335938 170.792969 185.421875 187.632812 C 193.570312 201.21875 183.757812 229.335938 182.070312 244.089844 L 180.503906 244.886719 C 176.230469 249.359375 168.980469 250.054688 163.214844 251.144531 C 146.128906 254.425781 128.441406 256.460938 111.054688 257.132812 L 110.285156 257.15625 C 110.609375 261.054688 112.519531 264.660156 115.972656 266.644531 C 110.011719 265.652344 103.105469 262.398438 100.074219 257.058594 C 78.863281 255.839844 61.824219 247.570312 67.214844 221.089844 Z M 67.238281 221.089844 " clip-rule="nonzero"/></clipPath></defs><g clip-path="url(#fc9913282a)"><g clip-path="url(#75162c7671)"><path fill="#006630" d="M 0 0 L 375.390625 0 L 375.390625 366.796875 L 0 366.796875 Z M 0 0 " fill-opacity="1" fill-rule="nonzero"/></g></g><g clip-path="url(#fe665ab8eb)"><g clip-path="url(#707181a5b7)"><path fill="#f2f2f2" d="M 0 0 L 375.390625 0 L 375.390625 366.796875 L 0 366.796875 Z M 0 0 " fill-opacity="1" fill-rule="nonzero"/></g></g><g clip-path="url(#f9911fa705)"><g clip-path="url(#fee74bc675)"><path fill="#21ce6b" d="M 0 0 L 375.390625 0 L 375.390625 366.796875 L 0 366.796875 Z M 0 0 " fill-opacity="1" fill-rule="nonzero"/></g></g><g clip-path="url(#87dfe0ab8f)"><g clip-path="url(#6601fb89aa)"><path fill="#006630" d="M 0 0 L 375.390625 0 L 375.390625 366.796875 L 0 366.796875 Z M 0 0 " fill-opacity="1" fill-rule="nonzero"/></g></g></svg>