<svg xmlns="http://www.w3.org/2000/svg" xmlns:xlink="http://www.w3.org/1999/xlink" width="500" zoomAndPan="magnify" viewBox="0 0 375 374.999991" height="500" preserveAspectRatio="xMidYMid meet" version="1.0"><defs><clipPath id="90ace11a8d"><path d="M 28.644531 20.050781 L 363 20.050781 L 363 355 L 28.644531 355 Z M 28.644531 20.050781 " clip-rule="nonzero"/></clipPath><clipPath id="567a453d7b"><path d="M 362.574219 187.359375 C 362.574219 279.515625 287.859375 354.230469 195.707031 354.230469 C 103.554688 354.230469 28.839844 279.539062 28.839844 187.359375 C 28.839844 95.183594 103.554688 20.492188 195.707031 20.492188 C 287.859375 20.492188 362.574219 95.207031 362.574219 187.386719 " clip-rule="nonzero"/></clipPath><clipPath id="0a8f85efc8"><path d="M 12 12 L 346.613281 12 L 346.613281 346.613281 L 12 346.613281 Z M 12 12 " clip-rule="nonzero"/></clipPath><clipPath id="0c82b90f61"><path d="M 346.15625 179.3125 C 346.15625 271.464844 271.441406 346.183594 179.289062 346.183594 C 87.136719 346.183594 12.417969 271.464844 12.417969 179.3125 C 12.417969 87.160156 87.136719 12.417969 179.289062 12.417969 C 271.441406 12.417969 346.15625 87.136719 346.15625 179.3125 " clip-rule="nonzero"/></clipPath><clipPath id="dcf57bcde7"><path d="M 154.6875 52 L 263 52 L 263 274.996094 L 154.6875 274.996094 Z M 154.6875 52 " clip-rule="nonzero"/></clipPath><clipPath id="69d3c317ac"><path d="M 204.648438 274.820312 C 194.960938 274.820312 185.050781 273.328125 176.855469 268.90625 C 167.464844 263.839844 156.785156 252.886719 159.316406 229.386719 C 162.796875 197.046875 171.242188 165.949219 178.71875 138.503906 C 186.964844 108.199219 194.066406 82.042969 188.925781 71.710938 C 186.863281 67.585938 184.28125 65.226562 181.027344 64.53125 C 174.121094 63.015625 165.03125 68.804688 162.125 71.140625 L 154.796875 62.121094 C 156.289062 60.90625 169.875 50.25 183.460938 53.179688 C 188.15625 54.199219 194.714844 57.328125 199.332031 66.519531 C 206.488281 80.800781 199.53125 106.285156 189.945312 141.558594 C 182.59375 168.582031 174.269531 199.183594 170.894531 230.628906 C 169.402344 244.539062 173.152344 253.707031 182.394531 258.671875 C 204.523438 270.570312 249.632812 255.769531 255.121094 251.246094 L 262.523438 260.1875 C 257.53125 264.3125 241.957031 269.753906 227.054688 272.535156 C 220.445312 273.777344 212.648438 274.792969 204.671875 274.792969 " clip-rule="nonzero"/></clipPath><clipPath id="a6f4af9141"><path d="M 249.21875 231 L 295 231 L 295 282.160156 L 249.21875 282.160156 Z M 249.21875 231 " clip-rule="nonzero"/></clipPath><clipPath id="ec032c0808"><path d="M 252.5625 233.488281 C 252.5625 233.488281 239.847656 261.132812 266.101562 282.148438 C 266.101562 282.148438 300.625 273.054688 293.746094 245.113281 C 288.777344 224.941406 252.5625 233.511719 252.5625 233.511719 " clip-rule="nonzero"/></clipPath><clipPath id="6a554f1ad6"><path d="M 63.019531 49 L 172 49 L 172 289 L 63.019531 289 Z M 63.019531 49 " clip-rule="nonzero"/></clipPath><clipPath id="db15fa07da"><path d="M 162.597656 55.886719 C 162.597656 55.886719 180.007812 66.246094 167.167969 74.964844 C 154.324219 83.683594 128.589844 87.804688 136.464844 178.617188 C 144.339844 269.429688 130.652344 267.765625 122.355469 274.820312 C 114.0625 281.875 92.921875 293.894531 80.902344 285.597656 C 68.878906 277.304688 63.910156 193.546875 63.910156 188.976562 C 63.910156 184.40625 64.929688 98.414062 88.800781 73.300781 C 111.179688 49.703125 132.34375 43.445312 162.597656 55.886719 " clip-rule="nonzero"/></clipPath></defs><g clip-path="url(#90ace11a8d)"><g clip-path="url(#567a453d7b)"><path fill="#ad680c" d="M 0 0 L 375.257812 0 L 375.257812 366.664062 L 0 366.664062 Z M 0 0 " fill-opacity="1" fill-rule="nonzero"/></g></g><g clip-path="url(#0a8f85efc8)"><g clip-path="url(#0c82b90f61)"><path fill="#f2f2f2" d="M 0 0 L 375.257812 0 L 375.257812 366.664062 L 0 366.664062 Z M 0 0 " fill-opacity="1" fill-rule="nonzero"/></g></g><g clip-path="url(#dcf57bcde7)"><g clip-path="url(#69d3c317ac)"><path fill="#ad680c" d="M 0 0 L 375.257812 0 L 375.257812 366.664062 L 0 366.664062 Z M 0 0 " fill-opacity="1" fill-rule="nonzero"/></g></g><g clip-path="url(#a6f4af9141)"><g clip-path="url(#ec032c0808)"><path fill="#f2a73b" d="M 0 0 L 375.257812 0 L 375.257812 366.664062 L 0 366.664062 Z M 0 0 " fill-opacity="1" fill-rule="nonzero"/></g></g><g clip-path="url(#6a554f1ad6)"><g clip-path="url(#db15fa07da)"><path fill="#f2a73b" d="M 0 0 L 375.257812 0 L 375.257812 366.664062 L 0 366.664062 Z M 0 0 " fill-opacity="1" fill-rule="nonzero"/></g></g></svg>