<svg xmlns="http://www.w3.org/2000/svg" xmlns:xlink="http://www.w3.org/1999/xlink" width="500" zoomAndPan="magnify" viewBox="0 0 375 374.999991" height="500" preserveAspectRatio="xMidYMid meet" version="1.0"><defs><clipPath id="c7c1a148b4"><path d="M 28 20.070312 L 362.710938 20.070312 L 362.710938 355 L 28 355 Z M 28 20.070312 " clip-rule="nonzero"/></clipPath><clipPath id="9e4fa81575"><path d="M 362.574219 187.535156 C 362.574219 279.785156 287.785156 354.578125 195.53125 354.578125 C 103.28125 354.578125 28.492188 279.8125 28.492188 187.535156 C 28.492188 95.257812 103.28125 20.492188 195.53125 20.492188 C 287.785156 20.492188 362.574219 95.28125 362.574219 187.535156 " clip-rule="nonzero"/></clipPath><clipPath id="fe2c0ea8a6"><path d="M 12 12 L 346.941406 12 L 346.941406 346.941406 L 12 346.941406 Z M 12 12 " clip-rule="nonzero"/></clipPath><clipPath id="9bb0507baa"><path d="M 346.503906 179.460938 C 346.503906 271.714844 271.714844 346.503906 179.460938 346.503906 C 87.210938 346.503906 12.417969 271.738281 12.417969 179.460938 C 12.417969 87.183594 87.210938 12.417969 179.460938 12.417969 C 271.714844 12.417969 346.503906 87.210938 346.503906 179.460938 " clip-rule="nonzero"/></clipPath><clipPath id="d91d917a6c"><path d="M 147 59 L 259.488281 59 L 259.488281 258 L 147 258 Z M 147 59 " clip-rule="nonzero"/></clipPath><clipPath id="6136ff6038"><path d="M 186.863281 257.40625 C 175.835938 257.40625 166.097656 254.601562 159.988281 246.949219 C 147.394531 231.25 156.113281 204.128906 166.222656 172.707031 C 174.269531 147.691406 183.410156 119.328125 180.851562 95.753906 C 179.039062 79.039062 174.570312 68.828125 167.910156 66.222656 C 160.261719 63.238281 151.144531 70.964844 151.070312 71.066406 L 147.023438 66.445312 C 147.496094 66.023438 158.96875 56.136719 170.171875 60.507812 C 179.238281 64.035156 184.902344 75.683594 187.011719 95.109375 C 189.695312 119.996094 180.355469 149.007812 172.109375 174.617188 C 162.945312 203.085938 154.273438 229.984375 164.808594 243.101562 C 181.175781 263.492188 236.441406 240.316406 256.363281 229.660156 L 259.269531 235.101562 C 256.984375 236.320312 217.09375 257.40625 186.890625 257.40625 " clip-rule="nonzero"/></clipPath><clipPath id="40f918ac84"><path d="M 144 57.34375 L 262.355469 57.34375 L 262.355469 260 L 144 260 Z M 144 57.34375 " clip-rule="nonzero"/></clipPath><clipPath id="3ad53fdfa6"><path d="M 164.160156 63.511719 L 167.265625 63.785156 C 176.207031 67.265625 180.976562 77.769531 182.914062 95.554688 C 185.496094 119.574219 176.308594 148.140625 168.183594 173.375 C 158.25 204.226562 149.679688 230.855469 161.578125 245.707031 C 166.746094 252.117188 175.238281 255.394531 186.863281 255.394531 C 213.417969 255.394531 248.09375 238.554688 256.4375 234.28125 L 255.46875 232.492188 C 239.722656 240.664062 209.34375 253.332031 186.714844 253.332031 C 175.8125 253.332031 167.886719 250.351562 163.167969 244.441406 C 151.941406 230.457031 160.78125 203.058594 170.121094 174.046875 C 178.292969 148.636719 187.585938 119.824219 184.925781 95.382812 C 182.914062 76.777344 177.699219 65.722656 169.402344 62.46875 L 164.136719 61.5 C 158.125 61.5 152.609375 64.855469 149.976562 66.765625 L 151.34375 68.332031 C 153.851562 66.570312 158.871094 63.5625 164.136719 63.5625 M 186.839844 259.519531 C 173.898438 259.519531 164.308594 255.742188 158.347656 248.316406 C 145.058594 231.75 153.953125 204.152344 164.234375 172.160156 C 172.234375 147.34375 181.273438 119.203125 178.792969 96.050781 C 177.101562 80.378906 172.953125 70.492188 167.140625 68.234375 L 165.203125 67.6875 C 158.324219 67.6875 152.4375 72.652344 152.386719 72.703125 L 150.847656 74.019531 L 144.089844 66.34375 L 145.632812 65.003906 C 146.5 64.234375 154.523438 57.453125 164.113281 57.453125 L 170.867188 58.695312 C 180.703125 62.519531 186.8125 74.742188 189 94.984375 C 191.734375 120.296875 182.320312 149.53125 174.023438 175.339844 C 165.03125 203.28125 156.535156 229.660156 166.371094 241.933594 C 170.296875 246.800781 177.128906 249.285156 186.738281 249.285156 C 209.515625 249.285156 241.585938 235.351562 255.371094 227.972656 L 257.183594 227.003906 L 262.027344 236.046875 L 260.214844 237.015625 C 258.5 237.933594 217.664062 259.566406 186.863281 259.566406 " clip-rule="nonzero"/></clipPath><clipPath id="344f024463"><path d="M 241 192.109375 L 303.929688 192.109375 L 303.929688 252 L 241 252 Z M 241 192.109375 " clip-rule="nonzero"/></clipPath><clipPath id="cb35a9e622"><path d="M 258.574219 197.273438 C 270.472656 191.261719 286.640625 189.96875 296.875 199.507812 C 305.445312 207.480469 305.59375 219.054688 300.203125 229.265625 C 295.3125 238.53125 287.734375 249.632812 276.804688 251.421875 C 271.316406 252.316406 262.921875 250.578125 258.402344 247.222656 C 248.117188 239.621094 234.925781 221.042969 244.191406 208.425781 C 247.023438 204.550781 251.421875 201.496094 255.46875 199.011719 L 257.507812 197.816406 " clip-rule="nonzero"/></clipPath><clipPath id="52d421cf58"><path d="M 55 52 L 171 52 L 171 275.257812 L 55 275.257812 Z M 55 52 " clip-rule="nonzero"/></clipPath><clipPath id="5222a51dd8"><path d="M 166.472656 65.175781 C 166.472656 65.175781 176.207031 72.355469 166.472656 82.117188 C 156.734375 91.878906 146.476562 105.191406 143.890625 181.125 C 141.308594 257.058594 133.632812 267.292969 98.761719 273.976562 C 63.886719 280.65625 55.664062 258.078125 55.167969 250.378906 C 54.671875 242.675781 55.6875 160.609375 64.90625 126.230469 C 74.121094 91.855469 86.441406 72.382812 115.179688 59.5625 C 143.917969 46.746094 154.671875 53.925781 166.472656 65.203125 " clip-rule="nonzero"/></clipPath></defs><g clip-path="url(#c7c1a148b4)"><g clip-path="url(#9e4fa81575)"><path fill="#ad680c" d="M 0 0 L 375.613281 0 L 375.613281 367.011719 L 0 367.011719 Z M 0 0 " fill-opacity="1" fill-rule="nonzero"/></g></g><g clip-path="url(#fe2c0ea8a6)"><g clip-path="url(#9bb0507baa)"><path fill="#f2f2f2" d="M 0 0 L 375.613281 0 L 375.613281 367.011719 L 0 367.011719 Z M 0 0 " fill-opacity="1" fill-rule="nonzero"/></g></g><g clip-path="url(#d91d917a6c)"><g clip-path="url(#6136ff6038)"><path fill="#2e5075" d="M 0 0 L 375.613281 0 L 375.613281 367.011719 L 0 367.011719 Z M 0 0 " fill-opacity="1" fill-rule="nonzero"/></g></g><g clip-path="url(#40f918ac84)"><g clip-path="url(#3ad53fdfa6)"><path fill="#ad680c" d="M 0 0 L 375.613281 0 L 375.613281 367.011719 L 0 367.011719 Z M 0 0 " fill-opacity="1" fill-rule="nonzero"/></g></g><g clip-path="url(#344f024463)"><g clip-path="url(#cb35a9e622)"><path fill="#f2a73b" d="M 0 0 L 375.613281 0 L 375.613281 367.011719 L 0 367.011719 Z M 0 0 " fill-opacity="1" fill-rule="nonzero"/></g></g><g clip-path="url(#52d421cf58)"><g clip-path="url(#5222a51dd8)"><path fill="#f2a73b" d="M 0 0 L 375.613281 0 L 375.613281 367.011719 L 0 367.011719 Z M 0 0 " fill-opacity="1" fill-rule="nonzero"/></g></g></svg>